HIERARCHY
ROOT RootJoint
{
    OFFSET   0.000000   0.000000   0.000000
    CHANNELS 6 Xposition Yposition Zposition Xrotation Yrotation Zrotation
    JOINT pelvis_lowerback
    {
        OFFSET   0.000000   0.093605   0.000000
        CHANNELS 3 Xrotation Yrotation Zrotation
        JOINT lowerback_torso
        {
            OFFSET   0.000000   0.100000   0.000000
            CHANNELS 3 Xrotation Yrotation Zrotation
            JOINT torso_head
            {
                OFFSET   0.000000   0.282350   0.000000
                CHANNELS 3 Xrotation Yrotation Zrotation
                End Site
                {
                    OFFSET   0.000000   0.192650   0.000000
                }
            }
            JOINT rTorso_Clavicle
            {
                OFFSET  -0.001000   0.157500   0.000000
                CHANNELS 3 Xrotation Yrotation Zrotation
                JOINT rShoulder
                {
                    OFFSET  -0.117647   0.000000   0.000000
                    CHANNELS 3 Xrotation Yrotation Zrotation
                    JOINT rElbow
                    {
                        OFFSET  -0.245000   0.000000   0.000000
                        CHANNELS 3 Xrotation Yrotation Zrotation
                        JOINT rWrist
                        {
                            OFFSET  -0.240000   0.000000   0.000000
                            CHANNELS 3 Xrotation Yrotation Zrotation
                            End Site
                            {
                                OFFSET  -0.116353  -0.002500   0.000000
                            }
                        }
                    }
                }
            }
            JOINT lTorso_Clavicle
            {
                OFFSET   0.001000   0.157500   0.000000
                CHANNELS 3 Xrotation Yrotation Zrotation
                JOINT lShoulder
                {
                    OFFSET   0.117647   0.000000   0.000000
                    CHANNELS 3 Xrotation Yrotation Zrotation
                    JOINT lElbow
                    {
                        OFFSET   0.245000   0.000000   0.000000
                        CHANNELS 3 Xrotation Yrotation Zrotation
                        JOINT lWrist
                        {
                            OFFSET   0.240000   0.000000   0.000000
                            CHANNELS 3 Xrotation Yrotation Zrotation
                            End Site
                            {
                                OFFSET   0.116353  -0.002500   0.000000
                            }
                        }
                    }
                }
            }
        }
    }
    JOINT rHip
    {
        OFFSET  -0.100000  -0.051395   0.000000
        CHANNELS 3 Xrotation Yrotation Zrotation
        JOINT rKnee
        {
            OFFSET   0.000000  -0.410000   0.000000
            CHANNELS 3 Xrotation Yrotation Zrotation
            JOINT rAnkle
            {
                OFFSET   0.000000  -0.390000   0.000000
                CHANNELS 3 Xrotation Yrotation Zrotation
                JOINT rToeJoint
                {
                    OFFSET   0.000000  -0.050000   0.130000
                    CHANNELS 3 Xrotation Yrotation Zrotation
                    End Site
                    {
                        OFFSET  -0.010000   0.002000   0.060000
                    }
                }
            }
        }
    }
    JOINT lHip
    {
        OFFSET   0.100000  -0.051395   0.000000
        CHANNELS 3 Xrotation Yrotation Zrotation
        JOINT lKnee
        {
            OFFSET   0.000000  -0.410000   0.000000
            CHANNELS 3 Xrotation Yrotation Zrotation
            JOINT lAnkle
            {
                OFFSET   0.000000  -0.390000   0.000000
                CHANNELS 3 Xrotation Yrotation Zrotation
                JOINT lToeJoint
                {
                    OFFSET   0.000000  -0.050000   0.130000
                    CHANNELS 3 Xrotation Yrotation Zrotation
                    End Site
                    {
                        OFFSET   0.010000   0.002000   0.060000
                    }
                }
            }
        }
    }
}
MOTION
Frames: 11
Frame Time:   0.008333
 -2.376719   0.925631   3.975860   0.000000   0.000000   0.000000   0.000000   0.000000   0.000000   0.000000   0.000000   0.000000   0.000000   0.000000   0.000000   0.000000   0.000000   0.000000   0.000000   0.000000   0.000000   0.000000   0.000000   0.000000   0.000000   0.000000   0.000000   0.000000   0.000000   0.000000   0.000000   0.000000   0.000000   0.000000   0.000000   0.000000   0.000000   0.000000   0.000000   0.000000   0.000000   0.000000   0.000000   0.000000   0.000000   0.000000   0.000000   0.000000   0.000000   0.000000   0.000000   0.000000   0.000000   0.000000   0.000000   0.000000   0.000000   0.000000   0.000000   0.000000   0.000000   0.000000   0.000000
 -2.376565   0.924968   3.974393   0.078305   0.525062  -0.275937   0.314232  -0.086439   0.312375  -0.216337  -0.211915   0.192041  -0.224459  -0.085611  -0.080165  -0.332418  -0.491630  -0.343690  -2.969999  -0.355503   0.588768   0.011812   3.562437   0.096927  -0.062140  -1.500049  -1.280236  -0.165498   0.462154   0.309334   0.066589  -0.100774  -1.490383   0.029950  -3.586051   0.003167   0.015601   1.368877   1.188563  -0.620844  -0.037474   0.217144   2.156380   0.001216   0.009205  -2.334295  -0.042470   0.092025  -0.020237   0.000008  -0.000079  -1.412898   0.206417   0.370765   2.771144  -0.001967   0.017931  -1.109432   0.281197  -0.224635   0.003933   0.000004   0.000035
 -2.376376   0.923832   3.972897   0.019206   1.186449  -0.583273   0.648926  -0.171388   0.670109  -0.358201  -0.453935   0.421946  -0.403980  -0.164426  -0.124619  -0.667534  -0.876137  -0.533478  -5.765759  -0.601840   1.231098   0.018903   7.246961   0.174449  -0.222451  -2.071580  -2.386076  -0.319361   0.759436   0.355113   0.117826  -0.363361  -3.096400   0.066176  -7.316957   0.004360   0.039803   1.684470   2.032260  -0.959927  -0.057448   0.404477   4.468775   0.004312   0.020223  -4.514669  -0.082400   0.175623  -0.132352  -0.000007  -0.000660  -2.880229   0.425519   0.841200   5.608723  -0.003498   0.037157  -2.123259   0.558942  -0.426272   0.055353   0.000023   0.000562
 -2.376023   0.922844   3.971295  -0.043218   1.659445  -0.810513   0.933326  -0.152538   0.986574  -0.500034  -0.612196   0.623828  -0.576325  -0.233813  -0.155407  -0.978328  -1.110387  -0.549616  -8.373317  -0.766489   1.927433   0.023097  10.974883   0.233915  -0.380987  -2.276838  -3.281411  -0.460383   0.960019   0.184636   0.154555  -0.677162  -4.742992   0.103564 -11.082301   0.003581   0.067949   1.645725   2.581093  -1.178841  -0.059889   0.458846   6.718323   0.008311   0.024997  -6.541538  -0.120885   0.256328  -0.205098  -0.000055  -0.000808  -4.277475   0.470256   1.014953   8.236855   0.001196   0.042373  -3.491406   0.605648  -0.598585   0.140757   0.000202   0.000896
 -2.375870   0.921763   3.969632  -0.092602   2.003520  -1.033227   1.175837  -0.082206   1.278340  -0.647991  -0.707706   0.818163  -0.747722  -0.297853  -0.177621  -1.262985  -1.232259  -0.452186 -10.801694  -0.885505   2.660380   0.022674  14.729193   0.278846  -0.533687  -2.303808  -3.958396  -0.587222   1.099526  -0.095245   0.180187  -1.009771  -6.373107   0.137318 -14.863431   0.001840   0.094644   1.476141   2.890117  -1.283272  -0.064919   0.500473   8.852037   0.011586   0.025611  -8.431707  -0.161061   0.332091  -0.269735  -0.000099  -0.000819  -5.645822   0.512103   1.280692  10.763127   0.003013   0.043432  -4.604276   0.694112  -0.691097  -0.025254   0.000053  -0.000043
 -2.375849   0.920392   3.967897  -0.111299   2.346460  -1.261451   1.381004  -0.014291   1.566841  -0.801994  -0.785951   1.001041  -0.917829  -0.358601  -0.197493  -1.522570  -1.287140  -0.298080 -13.061889  -0.988879   3.392752   0.017070  18.494219   0.311932  -0.680441  -2.241548  -4.483225  -0.700679   1.186826  -0.436763   0.196522  -1.354309  -7.956878   0.165295 -18.656428  -0.000021   0.119042   1.238652   3.032315  -1.286396  -0.077447   0.532415  10.866739   0.014361   0.025346 -10.195773  -0.202299   0.401783  -0.332986  -0.000145  -0.000817  -6.989559   0.618444   1.574776  13.139513   0.004465   0.045263  -5.626558   0.852984  -0.801735  -0.154764  -0.000045  -0.000794
 -2.375952   0.918753   3.966068  -0.094501   2.667275  -1.474596   1.561261   0.073830   1.828190  -0.957116  -0.834784   1.164976  -1.085314  -0.415837  -0.213976  -1.759944  -1.276692  -0.112397 -15.166243  -1.068902   4.108609   0.007786  22.030928   0.329953  -0.813588  -2.033912  -4.911864  -0.802755   1.233112  -0.811539   0.204429  -1.703559  -9.475593   0.187528 -22.458310  -0.001339   0.141805   0.959306   3.073944  -1.216841  -0.088352   0.536138  12.770651   0.016585   0.024256 -11.841353  -0.242996   0.466124  -0.390023  -0.000185  -0.000788  -8.307085   0.711026   1.859633  15.373432   0.005631   0.045552  -6.569761   0.993350  -0.904499  -0.255723  -0.000094  -0.001189
 -2.375931   0.916230   3.963608   0.029848   3.215200  -1.500305   1.851467   0.176861   1.876502  -1.156158  -1.057970   1.326477  -1.394662  -0.359981  -0.291697  -2.153791  -1.407927   0.031439 -17.511918  -1.083084   4.787486  -0.012878  25.615146   0.356809  -0.926435  -1.917359  -5.247229  -0.971818   1.323152  -1.014507  -0.013463  -2.098562 -11.065518   0.200530 -26.271330  -0.007372   0.199851   0.615652   3.037764  -0.848338  -0.282358   0.240013  13.353171   0.015395   0.020665 -12.820826  -0.367078   0.484758  -0.173646   0.000408  -0.000204 -10.177977   0.988390   1.965401  18.366073   0.009745   0.059322  -7.784479   1.376876  -1.131649  -0.276818  -0.000113  -0.001187
 -2.375911   0.912853   3.960798   0.162856   3.679967  -1.481015   2.208856   0.342646   1.892661  -1.295498  -1.233437   1.448944  -1.683689  -0.301634  -0.369782  -2.528992  -1.495821   0.121746 -19.709277  -1.085645   5.392010  -0.034763  28.980495   0.366555  -1.036253  -1.692847  -5.650195  -1.133564   1.392576  -1.180574  -0.230388  -2.473878 -12.537421   0.208052 -30.088902  -0.007667   0.250975   0.257625   3.018814  -0.473700  -0.453891  -0.158383  13.740053   0.013868   0.017131 -13.739557  -0.485624   0.498810   0.046441   0.001016   0.000172 -12.088879   1.271655   2.077117  21.217537   0.012840   0.067326  -8.914517   1.746195  -1.333479  -0.305664  -0.000130  -0.001250
 -2.375954   0.908650   3.957798   0.291132   4.078353  -1.451269   2.609864   0.536182   1.897195  -1.374035  -1.362623   1.547258  -1.944450  -0.246070  -0.441707  -2.882424  -1.540374   0.162748 -21.764546  -1.076110   5.932002  -0.055004  32.132976   0.364143  -1.131577  -1.412925  -6.104843  -1.286338   1.450355  -1.317514  -0.443323  -2.825058 -13.898997   0.212200 -33.908316  -0.004099   0.302073  -0.096297   3.029531  -0.108542  -0.613299  -0.600886  14.074428   0.012493   0.014052 -14.598683  -0.597592   0.509781   0.245836   0.001505   0.000367 -13.971261   1.526565   2.229430  23.856243   0.014427   0.070319  -9.969232   2.095278  -1.513124  -0.335133  -0.000130  -0.001279
 -2.376267   0.907121   3.955353   0.188760   4.356614  -1.867121   3.154494   0.788157   2.244168  -1.328745  -1.430618   1.800958  -2.174622  -0.192631  -0.494254  -3.208969  -1.546954   0.362455 -23.677775  -1.086333   6.499053  -0.064330  35.074215   0.353888  -1.206893  -1.084832  -6.622366  -1.406733   1.508046  -1.690027  -0.634315  -3.145089 -15.288847   0.225483 -37.723045   0.002372   0.356856  -0.420348   3.048696  -0.167077  -1.016658  -0.179656  14.700266   0.009957   0.010437 -15.197899  -0.829342   0.767362   0.531721   0.000563  -0.000608 -15.506219   1.703473   2.869887  26.247642   0.015065   0.069682 -10.946675   2.427658  -1.670624  -0.304318  -0.000086  -0.000756
